<?xml version="1.0" standalone="no"?>
<!DOCTYPE svg PUBLIC "-//W3C//DTD SVG 20010904//EN"
 "http://www.w3.org/TR/2001/REC-SVG-20010904/DTD/svg10.dtd">
<svg version="1.0" xmlns="http://www.w3.org/2000/svg"
 width="48.000000pt" height="48.000000pt" viewBox="0 0 48.000000 48.000000"
 preserveAspectRatio="xMidYMid meet">
<metadata>
Created by potrace 1.10, written by Peter Selinger 2001-2011
</metadata>
<g transform="translate(0.000000,48.000000) scale(0.100000,-0.100000)"
fill="#000000" stroke="none">
<path d="M160 315 c-12 -14 -9 -21 18 -48 l32 -31 -32 -33 c-27 -27 -29 -35
-18 -48 12 -14 17 -12 47 17 l33 32 33 -32 c30 -29 35 -31 47 -17 11 13 9 21
-18 48 l-32 33 32 31 c27 27 30 34 18 48 -12 14 -17 13 -47 -17 l-33 -32 -33
32 c-30 30 -35 31 -47 17z"/>
</g>
</svg>
