<?xml version="1.0" standalone="no"?>
<!DOCTYPE svg PUBLIC "-//W3C//DTD SVG 20010904//EN"
 "http://www.w3.org/TR/2001/REC-SVG-20010904/DTD/svg10.dtd">
<svg version="1.0" xmlns="http://www.w3.org/2000/svg"
 width="45.000000pt" height="40.000000pt" viewBox="0 0 45.000000 40.000000"
 preserveAspectRatio="xMidYMid meet">
<g transform="translate(0.000000,40.000000) scale(0.100000,-0.100000)"
fill="#000000" stroke="none">
<path d="M155 351 c-43 -26 -66 -56 -74 -93 -6 -29 -10 -33 -34 -30 -15 2 -27
0 -27 -4 0 -4 22 -31 49 -59 l50 -52 28 31 c16 17 40 44 53 60 l25 29 -32 -5
c-27 -4 -33 -1 -33 14 0 44 52 108 86 108 13 0 26 5 29 10 11 18 -88 11 -120
-9z m-16 -131 c4 0 7 -9 7 -19 0 -11 -3 -18 -7 -15 -4 2 -9 -1 -11 -7 -6 -19
-34 1 -36 26 -2 27 31 54 36 29 2 -8 7 -14 11 -14z"/>
<path d="M278 226 c-27 -30 -48 -57 -48 -60 0 -3 11 -6 25 -6 21 0 25 -5 25
-29 0 -39 -35 -77 -85 -95 l-40 -15 48 0 c84 -2 144 40 162 112 5 20 13 27 31
27 13 0 24 3 24 8 0 4 -22 31 -48 60 l-47 53 -47 -55z m71 -24 c12 -23 -2 -48
-20 -36 -11 6 -12 5 -2 -8 7 -8 10 -18 6 -21 -12 -13 -34 32 -27 58 7 29 29
33 43 7z"/>
</g>
</svg>
